<svg xmlns="http://www.w3.org/2000/svg">
	<symbol version="1.1" id="customer" xmlns="http://www.w3.org/2000/svg" viewBox="0 0 512 512">
		<g>
			<g>
				<path d="M495.984,252.588c-17.119-14.109-44.177-15.319-61.936,3.74l-44.087,47.327c-5.7-18.319-22.809-31.658-42.977-31.658
                    h-78.675c-5.97,0-7.969-2.28-18.339-10.269c-39.538-34.468-98.924-34.358-138.342,0.33l-28.918,25.458
                    c-12.999-6.88-28.178-7.05-41.248-0.52L8.294,303.575c-7.41,3.71-10.409,12.719-6.71,20.129l89.995,179.989
                    c3.71,7.41,12.719,10.409,20.129,6.71l33.168-16.589c16.349-8.169,25.448-24.849,24.858-41.827h177.249
                    c32.868,0,64.276-15.699,83.995-41.997l72.006-96.014C516.953,295.366,514.743,268.077,495.984,252.588z M131.456,466.985
                    l-19.749,9.879L35.122,323.704l19.759-9.879c7.41-3.7,16.409-0.71,20.119,6.71l63.166,126.332
                    C141.866,454.276,138.866,463.275,131.456,466.985z M478.985,295.976L406.98,391.99c-14.089,18.789-36.518,29.998-59.996,29.998
                    H159.265l-56.207-112.423l28.388-24.988c28.248-24.849,70.846-24.849,99.094,0c16.639,14.649,26.988,17.419,37.768,17.419h78.675
                    c8.27,0,14.999,6.73,14.999,14.999s-6.73,14.999-14.999,14.999h-76.605c-8.28,0-14.999,6.72-14.999,14.999
                    s6.72,14.999,14.999,14.999h86.655c12.449,0,24.449-5.22,32.928-14.329l66.036-70.886c6.04-6.48,15.299-5.94,20.979-0.97
                    C482.915,281.006,483.556,289.896,478.985,295.976z" />
			</g>
		</g>
		<g>
			<g>
				<path d="M315.385,102.367c10.269-10.769,16.599-25.328,16.599-41.358c0-33.018-26.678-60.996-59.996-60.996
                    c-33.068,0-60.996,27.928-60.996,60.996c0,15.539,6.09,30.208,17.149,41.478c-27.428,15.379-47.147,44.897-47.147,79.515v14.999
                    c0,8.279,6.72,14.999,14.999,14.999h150.991c8.279,0,14.999-6.72,14.999-14.999v-14.999
                    C361.982,148.064,343.315,118.086,315.385,102.367z M271.988,30.012c16.259,0,29.998,14.199,29.998,30.998
                    c0,16.539-13.459,29.998-29.998,29.998c-16.799,0-30.998-13.739-30.998-29.998C240.99,44.501,255.479,30.012,271.988,30.012z
                    M210.992,182.002c0-33.068,27.928-60.996,60.996-60.996c33.078,0,59.996,27.358,59.996,60.996H210.992z" />
			</g>
		</g>
		<g>
		</g>
		<g>
		</g>
		<g>
		</g>
		<g>
		</g>
		<g>
		</g>
		<g>
		</g>
		<g>
		</g>
		<g>
		</g>
		<g>
		</g>
		<g>
		</g>
		<g>
		</g>
		<g>
		</g>
		<g>
		</g>
		<g>
		</g>
		<g>
		</g>
	</symbol>
	<symbol version="1.1" id="shop" xmlns="http://www.w3.org/2000/svg" viewBox="0 0 489.4 489.4">
		<g>
			<g>
				<path d="M347.7,263.75h-66.5c-18.2,0-33,14.8-33,33v51c0,18.2,14.8,33,33,33h66.5c18.2,0,33-14.8,33-33v-51
                    C380.7,278.55,365.9,263.75,347.7,263.75z M356.7,347.75c0,5-4.1,9-9,9h-66.5c-5,0-9-4.1-9-9v-51c0-5,4.1-9,9-9h66.5
                    c5,0,9,4.1,9,9V347.75z" />
				<path d="M489.4,171.05c0-2.1-0.5-4.1-1.6-5.9l-72.8-128c-2.1-3.7-6.1-6.1-10.4-6.1H84.7c-4.3,0-8.3,2.3-10.4,6.1l-72.7,128
                    c-1,1.8-1.6,3.8-1.6,5.9c0,28.7,17.3,53.3,42,64.2v211.1c0,6.6,5.4,12,12,12h66.3c0.1,0,0.2,0,0.3,0h93c0.1,0,0.2,0,0.3,0h221.4
                    c6.6,0,12-5.4,12-12v-209.6c0-0.5,0-0.9-0.1-1.3C472,224.55,489.4,199.85,489.4,171.05z M91.7,55.15h305.9l56.9,100.1H34.9
                    L91.7,55.15z M348.3,179.15c-3.8,21.6-22.7,38-45.4,38c-22.7,0-41.6-16.4-45.4-38H348.3z M232,179.15c-3.8,21.6-22.7,38-45.4,38
                    s-41.6-16.4-45.5-38H232z M24.8,179.15h90.9c-3.8,21.6-22.8,38-45.5,38C47.5,217.25,28.6,200.75,24.8,179.15z M201.6,434.35h-69
                    v-129.5c0-9.4,7.6-17.1,17.1-17.1h34.9c9.4,0,17.1,7.6,17.1,17.1v129.5H201.6z M423.3,434.35H225.6v-129.5
                    c0-22.6-18.4-41.1-41.1-41.1h-34.9c-22.6,0-41.1,18.4-41.1,41.1v129.6H66v-193.3c1.4,0.1,2.8,0.1,4.2,0.1
                    c24.2,0,45.6-12.3,58.2-31c12.6,18.7,34,31,58.2,31s45.5-12.3,58.2-31c12.6,18.7,34,31,58.1,31c24.2,0,45.5-12.3,58.1-31
                    c12.6,18.7,34,31,58.2,31c1.4,0,2.7-0.1,4.1-0.1L423.3,434.35L423.3,434.35z M419.2,217.25c-22.7,0-41.6-16.4-45.4-38h90.9
                    C460.8,200.75,441.9,217.25,419.2,217.25z" />
			</g>
		</g>
		<g>
		</g>
		<g>
		</g>
		<g>
		</g>
		<g>
		</g>
		<g>
		</g>
		<g>
		</g>
		<g>
		</g>
		<g>
		</g>
		<g>
		</g>
		<g>
		</g>
		<g>
		</g>
		<g>
		</g>
		<g>
		</g>
		<g>
		</g>
		<g>
		</g>
	</symbol>
	<symbol version="1.1" id="secure-payment" xmlns="http://www.w3.org/2000/svg" viewBox="0 0 512 512">
		<g>
			<g>
				<path d="M496,319.996c-8.832,0-16,7.168-16,16v112H32v-192h176c8.832,0,16-7.168,16-16c0-8.832-7.168-16-16-16H32v-64h176
                    c8.832,0,16-7.168,16-16c0-8.832-7.168-16-16-16H32c-17.664,0-32,14.336-32,32v288c0,17.664,14.336,32,32,32h448
                    c17.664,0,32-14.336,32-32v-112C512,327.164,504.832,319.996,496,319.996z" />
			</g>
		</g>
		<g>
			<g>
				<path d="M144,319.996H80c-8.832,0-16,7.168-16,16c0,8.832,7.168,16,16,16h64c8.832,0,16-7.168,16-16
                    C160,327.164,152.832,319.996,144,319.996z" />
			</g>
		</g>
		<g>
			<g>
				<path d="M502.304,81.276l-112-48c-4.064-1.696-8.576-1.696-12.64,0l-112,48c-5.856,2.528-9.664,8.32-9.664,14.72v64
                    c0,88.032,32.544,139.488,120.032,189.888c2.464,1.408,5.216,2.112,7.968,2.112s5.504-0.704,7.968-2.112
                    C479.456,299.612,512,248.156,512,159.996v-64C512,89.596,508.192,83.804,502.304,81.276z M480,159.996
                    c0,73.888-24.448,114.56-96,157.44c-71.552-42.976-96-83.648-96-157.44v-53.44l96-41.152l96,41.152V159.996z" />
			</g>
		</g>
		<g>
			<g>
				<path d="M442.016,131.484c-6.88-5.44-16.928-4.384-22.496,2.496l-50.304,62.912l-19.904-29.76
                    c-4.96-7.36-14.912-9.312-22.176-4.448c-7.328,4.896-9.344,14.848-4.448,22.176l32,48c2.848,4.256,7.52,6.88,12.64,7.136
                    c0.224,0,0.48,0,0.672,0c4.832,0,9.44-2.176,12.512-6.016l64-80C450.016,147.068,448.928,137.02,442.016,131.484z" />
			</g>
		</g>
		<g>
		</g>
		<g>
		</g>
		<g>
		</g>
		<g>
		</g>
		<g>
		</g>
		<g>
		</g>
		<g>
		</g>
		<g>
		</g>
		<g>
		</g>
		<g>
		</g>
		<g>
		</g>
		<g>
		</g>
		<g>
		</g>
		<g>
		</g>
		<g>
		</g>
	</symbol>
	<symbol id="return" viewBox="0 0 512 512" xmlns="http://www.w3.org/2000/svg">
		<g>
			<path d="m256 81c-30.645 0-55.578 24.932-55.578 55.577v27.608h-50.534l-12.383 227.572h236.987l-12.382-227.572h-50.534v-27.608c.002-30.645-24.93-55.577-55.576-55.577zm86.818 280.758h-173.635l9.118-167.572h155.399zm-86.818-250.758c14.104 0 25.577 11.474 25.577 25.577v27.608h-51.155v-27.608c.001-14.103 11.475-25.577 25.578-25.577z" />
			<path d="m472.292 119.073 34.368 6.026 5.18-29.549-86.323-15.134-15.134 86.324 29.549 5.181 6.575-37.501c23.016 36.111 35.493 78.446 35.493 121.58 0 60.367-23.508 117.12-66.194 159.806-42.685 42.686-99.438 66.194-159.806 66.194s-117.12-23.508-159.806-66.194c-42.686-42.685-66.194-99.439-66.194-159.806s23.508-117.12 66.194-159.806c42.686-42.685 99.439-66.194 159.806-66.194 43.585 0 85.887 12.427 122.334 35.938l16.262-25.21c-41.304-26.644-89.23-40.728-138.596-40.728-68.38 0-132.667 26.628-181.019 74.98-48.352 48.353-74.981 112.64-74.981 181.02s26.629 132.668 74.981 181.02 112.639 74.98 181.019 74.98 132.667-26.629 181.02-74.98c48.352-48.352 74.98-112.64 74.98-181.02 0-48.54-13.955-96.191-39.708-136.927z" />
			<path d="m209.667 262.972h92.666v30h-92.666z" />
		</g>
	</symbol>
	<symbol id="logo" version="1.2" baseProfile="tiny-ps" xmlns="http://www.w3.org/2000/svg" viewBox="0 0 25 25">
		<style>
			tspan { white-space:pre }
			.shp0 { fill: #ff0000 }
		</style>
		<path id="Shape 1" class="shp0" d="M9 0L15 0L15 25L9 25L9 0Z" />
		<path id="Shape 1 copy" class="shp0" d="M-0.36 8.96L2.6 3.73L24.36 16.04L21.4 21.27L-0.36 8.96Z" />
		<path id="Shape 1 copy 2" class="shp0" d="M21.51 3.86L24.4 9.12L2.49 21.14L-0.4 15.88L21.51 3.86Z" />
	</symbol>
</svg>
